<svg version="1.1" id="Layer_1" xmlns="http://www.w3.org/2000/svg" x="0" y="0" viewBox="0 0 90.1 30" xml:space="preserve"><style>.st1{fill:#d9d9d9}</style><path d="M35.4 16.2v11.1h-2.7V2.7h2.7v11.1h6V2.7h2.7v24.6h-2.7V16.2h-6zM52.6 2.7c3.8 0 5.3 1.8 5.3 5.5v1.2c0 2.6-.7 4.2-2.9 4.9 2.4.7 3.3 2.6 3.3 5.3v2.1c0 3.7-1.8 5.8-5.6 5.8H47V2.7h5.6zm-.7 10.4c2.2 0 3.3-.7 3.3-3.3V8.4c0-2.2-.7-3.2-2.7-3.2h-2.7v8l2.1-.1zm.8 11.7c2 0 2.9-1.1 2.9-3.3v-2.2c0-2.7-1.1-3.7-3.4-3.7h-2.4v9.2h2.9zM71.5 8.6v.7h-2.6v-.8c0-2.2-.8-3.5-2.8-3.5s-2.8 1.3-2.8 3.5c0 5.5 8.3 6.1 8.3 13 0 3.7-1.8 6.2-5.6 6.2s-5.5-2.4-5.5-6.2V20H63v1.5c0 2.2.9 3.5 2.9 3.5s2.9-1.3 2.9-3.5c0-5.5-8.2-6-8.2-12.9 0-3.8 1.8-6.2 5.4-6.2 3.7 0 5.5 2.5 5.5 6.2m5.1-5.9h-2.7v24.6h2.7V2.7zm13.5 5.9v.7h-2.6v-.8c0-2.2-.8-3.5-2.8-3.5s-2.8 1.3-2.8 3.5c0 5.5 8.3 6.1 8.3 13 0 3.7-1.8 6.2-5.6 6.2S79 25.1 79 21.4V20h2.6v1.5c0 2.2.9 3.5 2.9 3.5s2.9-1.3 2.9-3.5c0-5.5-8.2-6-8.2-12.9 0-3.8 1.8-6.2 5.4-6.2 3.7 0 5.5 2.5 5.5 6.2" fill="#254b9a"/><path class="st1" d="M8.1 3.1L11.5 9 8.1 3.1z"/><path d="M7.8 3.7l-.7-1.2-3.4-2C3.1.2 2.5 0 2 0 .8 0 0 1 0 2.6v15.5h5.6L10.8 9l-3-5.3z" fill="#264998"/><path d="M16.8 18.2l.5.8 1.2 2 6.6-3.8c1-.6 1.5-1.3 1.5-2.1s-.5-1.6-1.5-2.1l-17-9.9L11.5 9l5.3 9.2z" fill="#0099a8"/><path d="M0 18.8v8.6c0 .4.1.8.2 1.2.3.9.9 1.4 1.8 1.4.5 0 1.1-.2 1.7-.5l14.2-8.2-1.3-2.3-.1-.2H0z" fill="#176fb4"/><path class="st1" d="M16.5 18.8l.1.2-.1-.2z"/></svg>